<svg xmlns="http://www.w3.org/2000/svg" width="192" height="192" viewBox="0 0 192 192">
  <rect width="192" height="192" rx="32" fill="#1a1a2e"/>
  <path d="M103.784 179.752c-2.656 3.38-8.084 1.5-8.084-2.792V135.748a9.04 9.04 0 0 0-9.048-9.048H77.148a-3.68 3.68 0 0 1-3.68-7.152l29.92-41.884c4.28-5.988 0-14.312-7.368-14.312H28.948a-3.68 3.68 0 0 1-3.68-7.152l35.72-50.104c.856-1.188 2.224-1.896 3.68-1.896h115.576a3.68 3.68 0 0 1 3.68 7.152l-29.92 41.884c-4.28 5.992 0 14.316 7.368 14.316h37.268a3.772 3.772 0 0 1 3.56 7.32l-18.832 53.224c-1.508 4.256-5.516 4.456-8.34 1.904l-28.204-13.84z" fill="#863bff" transform="translate(20, 8) scale(0.75)"/>
  <text x="96" y="155" font-family="system-ui, sans-serif" font-weight="700" font-size="28" fill="#863bff" text-anchor="middle" letter-spacing="-0.5">AF</text>
</svg>
