<svg xmlns="http://www.w3.org/2000/svg" width="512" height="512" viewBox="0 0 512 512">
  <rect width="512" height="512" rx="64" fill="#1a1a2e"/>
  <path d="M277.3 479.7c-7.1 9-21.6 4-21.6-7.4V362.4c0-4.8-3.8-8.6-8.6-8.6h-47.4c-3.8 0-6-3.6-6-7.1l40-56.1c5.7-8 0-19.2-9.9-19.2H77.5c-3.8 0-6-3.6-6-7.1l48-67.2c1.1-1.6 3-2.6 5-2.6h155c3.8 0 6 3.6 6 7.1l-40 56.1c-5.7 8 0 19.2 9.9 19.2h50c5 0 9.5 4.8 9.5 9.8l-25.3 71.4c-2 5.7-7.4 6-11.2 2.6L277.3 479.7z" fill="#863bff"/>
  <text x="256" y="410" font-family="system-ui, sans-serif" font-weight="700" font-size="72" fill="#863bff" text-anchor="middle" letter-spacing="-1">AF</text>
</svg>
